<?xml version="1.0" standalone="no"?>
<!DOCTYPE svg PUBLIC "-//W3C//DTD SVG 20010904//EN"
 "http://www.w3.org/TR/2001/REC-SVG-20010904/DTD/svg10.dtd">
<svg version="1.0" xmlns="http://www.w3.org/2000/svg"
 width="470.000000pt" height="470.000000pt" viewBox="0 0 470.000000 470.000000"
 preserveAspectRatio="xMidYMid meet">
<metadata>
Created by potrace 1.14, written by Peter Selinger 2001-2017
</metadata>
<g transform="translate(0.000000,470.000000) scale(0.100000,-0.100000)"
fill="#000000" stroke="none">
<path d="M2179 4696 c-2 -2 -35 -6 -74 -10 -38 -3 -81 -8 -95 -10 -14 -3 -38
-7 -55 -9 -16 -3 -41 -8 -55 -11 -14 -3 -36 -8 -50 -10 -162 -30 -402 -116
-580 -209 -329 -171 -612 -416 -831 -721 -37 -51 -74 -105 -83 -122 -9 -16
-21 -36 -26 -44 -137 -212 -256 -546 -306 -862 -19 -114 -27 -477 -14 -569 5
-30 11 -74 14 -99 10 -73 26 -161 43 -225 8 -33 16 -67 18 -75 2 -8 17 -56 33
-107 149 -456 456 -876 852 -1164 328 -239 725 -392 1130 -436 138 -16 478 -8
595 12 232 41 388 84 549 152 669 281 1162 830 1362 1517 19 65 36 130 39 145
3 14 7 40 10 56 3 17 10 55 16 85 31 171 33 563 4 710 -2 14 -7 41 -9 60 -3
19 -10 58 -16 85 -6 28 -13 59 -16 69 -25 127 -118 373 -197 526 -44 86 -198
328 -229 362 -7 7 -35 40 -63 73 -50 61 -191 205 -255 260 -231 201 -585 399
-845 471 -109 30 -202 53 -235 59 -84 14 -147 24 -180 30 -37 7 -445 16 -451
11z"/>
</g>
</svg>
